{"accessors" : [{"bufferView" : 0, "byteOffset" : 0, "componentType" : 5123, "count" : 3342, "type" : "SCALAR", "max" : [624], "min" : [0]}, {"bufferView" : 1, "byteOffset" : 0, "componentType" : 5126, "count" : 625, "type" : "VEC3", "max" : [3.5914347171783447, 4.059578895568848, -0.42194974422454834], "min" : [-6.3634934425354, -0.6795788407325745, -0.78249192237854]}], "asset" : {"generator" : "Aspose.3D 20.12", "version" : "2.0"}, "buffers" : [{"uri" : "buffer.bin", "byteLength" : 46796}], "bufferViews" : [{"buffer" : 0, "byteOffset" : 0, "byteLength" : 6684, "target" : 34963}, {"buffer" : 0, "byteOffset" : 6688, "byteLength" : 40104, "byteStride" : 12, "target" : 34962}], "materials" : [{"pbrMetallicRoughness" : {"baseColorFactor" : [0.7843137254901961, 0.7843137254901961, 0.7843137254901961, 1], "metallicFactor" : 0, "roughnessFactor" : 0}, "emissiveFactor" : [0, 0, 0], "alphaMode" : "OPAQUE", "doubleSided" : false}], "meshes" : [{"primitives" : [{"attributes" : {"POSITION" : 1}, "indices" : 0, "material" : 0, "mode" : 4}]}], "nodes" : [{"mesh" : 0, "name" : "Key Metal"}], "scene" : 0, "scenes" : [{"nodes" : [0]}]}